<svg width="121" height="44" viewBox="0 0 121 44" fill="none" xmlns="http://www.w3.org/2000/svg">
<path d="M55.504 10.691C55.276 10.271 54.946 9.953 54.514 9.737C54.094 9.509 53.596 9.395 53.02 9.395C52.024 9.395 51.226 9.725 50.626 10.385C50.026 11.033 49.726 11.903 49.726 12.995C49.726 14.159 50.038 15.071 50.662 15.731C51.298 16.379 52.168 16.703 53.272 16.703C54.028 16.703 54.664 16.511 55.18 16.127C55.708 15.743 56.092 15.191 56.332 14.471H52.426V12.203H59.122V15.065C58.894 15.833 58.504 16.547 57.952 17.207C57.412 17.867 56.722 18.401 55.882 18.809C55.042 19.217 54.094 19.421 53.038 19.421C51.79 19.421 50.674 19.151 49.69 18.611C48.718 18.059 47.956 17.297 47.404 16.325C46.864 15.353 46.594 14.243 46.594 12.995C46.594 11.747 46.864 10.637 47.404 9.66501C47.956 8.681 48.718 7.919 49.69 7.379C50.662 6.827 51.772 6.551 53.02 6.551C54.532 6.551 55.804 6.917 56.836 7.649C57.88 8.381 58.57 9.395 58.906 10.691H55.504ZM67.2709 19.331L64.6429 14.561H63.9049V19.331H60.8269V6.695H65.9929C66.9889 6.695 67.8349 6.869 68.5309 7.217C69.2389 7.565 69.7669 8.045 70.1149 8.657C70.4629 9.257 70.6369 9.929 70.6369 10.673C70.6369 11.513 70.3969 12.263 69.9169 12.923C69.4489 13.583 68.7529 14.051 67.8289 14.327L70.7449 19.331H67.2709ZM63.9049 12.383H65.8129C66.3769 12.383 66.7969 12.245 67.0729 11.969C67.3609 11.693 67.5049 11.303 67.5049 10.799C67.5049 10.319 67.3609 9.94101 67.0729 9.66501C66.7969 9.38901 66.3769 9.25101 65.8129 9.25101H63.9049V12.383ZM80.4351 17.099H75.7191L74.9631 19.331H71.7411L76.3131 6.695H79.8771L84.4491 19.331H81.1911L80.4351 17.099ZM79.6431 14.723L78.0771 10.097L76.5291 14.723H79.6431ZM97.1446 19.331H94.0666L88.9186 11.537V19.331H85.8406V6.695H88.9186L94.0666 14.525V6.695H97.1446V19.331ZM104.11 6.695C105.442 6.695 106.606 6.959 107.602 7.487C108.598 8.015 109.366 8.759 109.906 9.719C110.458 10.667 110.734 11.765 110.734 13.013C110.734 14.249 110.458 15.347 109.906 16.307C109.366 17.267 108.592 18.011 107.584 18.539C106.588 19.067 105.43 19.331 104.11 19.331H99.3758V6.695H104.11ZM103.912 16.667C105.076 16.667 105.982 16.349 106.63 15.713C107.278 15.077 107.602 14.177 107.602 13.013C107.602 11.849 107.278 10.943 106.63 10.295C105.982 9.647 105.076 9.323 103.912 9.323H102.454V16.667H103.912Z" fill="#0C0C3D"/>
<path d="M51.688 37.457C50.764 37.457 49.936 37.307 49.204 37.007C48.472 36.707 47.884 36.263 47.44 35.675C47.008 35.087 46.78 34.379 46.756 33.551H50.032C50.08 34.019 50.242 34.379 50.518 34.631C50.794 34.871 51.154 34.991 51.598 34.991C52.054 34.991 52.414 34.889 52.678 34.685C52.942 34.469 53.074 34.175 53.074 33.803C53.074 33.491 52.966 33.233 52.75 33.029C52.546 32.825 52.288 32.657 51.976 32.525C51.676 32.393 51.244 32.243 50.68 32.075C49.864 31.823 49.198 31.571 48.682 31.319C48.166 31.067 47.722 30.695 47.35 30.203C46.978 29.711 46.792 29.069 46.792 28.277C46.792 27.101 47.218 26.183 48.07 25.523C48.922 24.851 50.032 24.515 51.4 24.515C52.792 24.515 53.914 24.851 54.766 25.523C55.618 26.183 56.074 27.107 56.134 28.295H52.804C52.78 27.887 52.63 27.569 52.354 27.341C52.078 27.101 51.724 26.981 51.292 26.981C50.92 26.981 50.62 27.083 50.392 27.287C50.164 27.479 50.05 27.761 50.05 28.133C50.05 28.541 50.242 28.859 50.626 29.087C51.01 29.315 51.61 29.561 52.426 29.825C53.242 30.101 53.902 30.365 54.406 30.617C54.922 30.869 55.366 31.235 55.738 31.715C56.11 32.195 56.296 32.813 56.296 33.569C56.296 34.289 56.11 34.943 55.738 35.531C55.378 36.119 54.85 36.587 54.154 36.935C53.458 37.283 52.636 37.457 51.688 37.457ZM57.6682 30.995C57.6682 29.747 57.9382 28.637 58.4782 27.665C59.0182 26.681 59.7682 25.919 60.7282 25.379C61.7002 24.827 62.7982 24.551 64.0222 24.551C65.5222 24.551 66.8062 24.947 67.8742 25.739C68.9422 26.531 69.6562 27.611 70.0162 28.979H66.6322C66.3802 28.451 66.0202 28.049 65.5522 27.773C65.0962 27.497 64.5742 27.359 63.9862 27.359C63.0382 27.359 62.2702 27.689 61.6822 28.349C61.0942 29.009 60.8002 29.891 60.8002 30.995C60.8002 32.099 61.0942 32.981 61.6822 33.641C62.2702 34.301 63.0382 34.631 63.9862 34.631C64.5742 34.631 65.0962 34.493 65.5522 34.217C66.0202 33.941 66.3802 33.539 66.6322 33.011H70.0162C69.6562 34.379 68.9422 35.459 67.8742 36.251C66.8062 37.031 65.5222 37.421 64.0222 37.421C62.7982 37.421 61.7002 37.151 60.7282 36.611C59.7682 36.059 59.0182 35.297 58.4782 34.325C57.9382 33.353 57.6682 32.243 57.6682 30.995ZM82.8452 24.695V37.331H79.7672V32.129H74.9792V37.331H71.9012V24.695H74.9792V29.645H79.7672V24.695H82.8452ZM91.0432 37.457C89.8552 37.457 88.7632 37.181 87.7672 36.629C86.7832 36.077 85.9972 35.309 85.4092 34.325C84.8332 33.329 84.5452 32.213 84.5452 30.977C84.5452 29.741 84.8332 28.631 85.4092 27.647C85.9972 26.663 86.7832 25.895 87.7672 25.343C88.7632 24.791 89.8552 24.515 91.0432 24.515C92.2312 24.515 93.3172 24.791 94.3012 25.343C95.2972 25.895 96.0772 26.663 96.6412 27.647C97.2172 28.631 97.5052 29.741 97.5052 30.977C97.5052 32.213 97.2172 33.329 96.6412 34.325C96.0652 35.309 95.2852 36.077 94.3012 36.629C93.3172 37.181 92.2312 37.457 91.0432 37.457ZM91.0432 34.649C92.0512 34.649 92.8552 34.313 93.4552 33.641C94.0672 32.969 94.3732 32.081 94.3732 30.977C94.3732 29.861 94.0672 28.973 93.4552 28.313C92.8552 27.641 92.0512 27.305 91.0432 27.305C90.0232 27.305 89.2072 27.635 88.5952 28.295C87.9952 28.955 87.6952 29.849 87.6952 30.977C87.6952 32.093 87.9952 32.987 88.5952 33.659C89.2072 34.319 90.0232 34.649 91.0432 34.649ZM105.194 37.457C104.006 37.457 102.914 37.181 101.918 36.629C100.934 36.077 100.148 35.309 99.5596 34.325C98.9836 33.329 98.6956 32.213 98.6956 30.977C98.6956 29.741 98.9836 28.631 99.5596 27.647C100.148 26.663 100.934 25.895 101.918 25.343C102.914 24.791 104.006 24.515 105.194 24.515C106.382 24.515 107.468 24.791 108.452 25.343C109.448 25.895 110.228 26.663 110.792 27.647C111.368 28.631 111.656 29.741 111.656 30.977C111.656 32.213 111.368 33.329 110.792 34.325C110.216 35.309 109.436 36.077 108.452 36.629C107.468 37.181 106.382 37.457 105.194 37.457ZM105.194 34.649C106.202 34.649 107.006 34.313 107.606 33.641C108.218 32.969 108.524 32.081 108.524 30.977C108.524 29.861 108.218 28.973 107.606 28.313C107.006 27.641 106.202 27.305 105.194 27.305C104.174 27.305 103.358 27.635 102.746 28.295C102.146 28.955 101.846 29.849 101.846 30.977C101.846 32.093 102.146 32.987 102.746 33.659C103.358 34.319 104.174 34.649 105.194 34.649ZM116.446 34.955H120.478V37.331H113.368V24.695H116.446V34.955Z" fill="#27ACA1"/>
<path d="M8.62831 16.0831L0.0383482 21.1882L0 11.0931L8.62831 16.0831Z" fill="#27ACA1"/>
<path d="M27.5722 5.02837L18.9056 10.0183V0L27.5722 5.02837Z" fill="#27ACA1"/>
<path d="M17.9086 10.5174L9.24191 15.5458V5.52747L17.9086 10.5174Z" fill="#27ACA1"/>
<path d="M17.9086 33.2411L9.24191 38.2311V28.1358L17.9086 33.2411Z" fill="#27ACA1"/>
<path d="M8.62831 27.2912L0.0383482 32.3579L0 22.2629L8.62831 27.2912Z" fill="#27ACA1"/>
<path d="M36.6608 22.0325L28.0709 27.1376V17.0042L36.6608 22.0325Z" fill="#27ACA1"/>
<path d="M27.5722 38.7299L18.9056 43.7582V33.6631L27.5722 38.7299Z" fill="#27ACA1"/>
<path d="M36.7375 33.3179L28.1091 38.3461V28.2511L36.7375 33.3179Z" fill="#27ACA1"/>
<path d="M0 21.7256L8.62831 26.7541V16.6973L0 21.7256Z" fill="#27ACA1"/>
<path d="M18.7906 22.0325L27.4188 27.0993V17.0042L18.7906 22.0325Z" fill="#27ACA1"/>
<path d="M28.2625 27.6752L36.9291 32.742V22.6469L28.2625 27.6752Z" fill="#27ACA1"/>
<path d="M9.6637 5.06674L18.2537 10.0951L18.292 0.0383911L9.6637 5.06674Z" fill="#27ACA1"/>
<path d="M9.6637 38.7299L18.2537 43.7582L18.292 33.6631L9.6637 38.7299Z" fill="#27ACA1"/>
<path d="M0 32.8956L8.62831 37.9239V27.8671L0 32.8956Z" fill="#27ACA1"/>
<path d="M18.9823 33.2411L27.6107 38.2311V28.1358L18.9823 33.2411Z" fill="#27ACA1"/>
<path d="M0 10.5174L8.62831 15.5458V5.52747L0 10.5174Z" fill="#27ACA1"/>
</svg>
